<svg id="Layer_1" data-name="Layer 1" xmlns="http://www.w3.org/2000/svg" viewBox="0 0 146.1 55.86"><defs><style>.cls-1{fill:#5ad8d8;}.cls-2{fill:#f95acc;}</style></defs><title>LogosColors</title><g id="colorLogo"><g id="Anna"><path class="cls-1" d="M22.34,25.1H17.59L15.14,19H6.74L4.22,25.1H0L10.74,0h.86Zm-4.08-1h2.56L11.17,1.54,1.52,24.1h2L6.07,18h9.75Zm-3.12-7.77H6.8L11,6.05Zm-6.84-1h5.37L11,8.71Z"/><path class="cls-1" d="M45.62,25.86h-.71l-.25-.15L28.19,9.32l.06,15.77h-4.2V.26h.87L41.51,17,41.45,1h4.17Zm-18.43-19L44.62,24.26V2H42.45l.07,17.46L25.05,1.81V24.1h2.2Z"/><path class="cls-1" d="M71.53,25.86h-.71l-.25-.15L54.11,9.32l.06,15.77H50V.26h.87L67.43,17,67.36,1h4.17ZM53.1,6.91,70.53,24.26V2H68.37l.07,17.46L51,1.81V24.1h2.2Z"/><path class="cls-1" d="M95.62,25.1H90.86L88.42,19H80L77.5,25.1H73.28L84,0h.86Zm-4.08-1H94.1L84.45,1.54,74.79,24.1h2L79.35,18h9.75Zm-3.12-7.77H80.08L84.32,6.05Zm-6.84-1h5.37L84.31,8.71Z"/></g><g id="penoyar"><path class="cls-2" d="M4.27,55.1H1.11a.5.5,0,0,1-.5-.5V31.46a.5.5,0,0,1,.5-.5H7.44a9.39,9.39,0,0,1,6.35,2h0a7.13,7.13,0,0,1,2.34,5.66,9,9,0,0,1-.85,3.86,6.84,6.84,0,0,1-2.78,3,9.2,9.2,0,0,1-4.74,1.13h-3v8A.5.5,0,0,1,4.27,55.1Zm-2.67-1H3.77v-8a.5.5,0,0,1,.5-.5H7.77a8.24,8.24,0,0,0,4.23-1,5.86,5.86,0,0,0,2.38-2.54,8,8,0,0,0,.75-3.43,6.1,6.1,0,0,0-2-4.9h0A8.44,8.44,0,0,0,7.44,32H1.61ZM7.77,43.58H4.27a.5.5,0,0,1-.5-.5V34.44a.5.5,0,0,1,.5-.5H7.93a4.8,4.8,0,0,1,3.84,1.47A4.93,4.93,0,0,1,13,38.69a5.26,5.26,0,0,1-.5,2.17,4.6,4.6,0,0,1-1.7,1.92h0A5.41,5.41,0,0,1,7.77,43.58Zm-3-1h3A4.44,4.44,0,0,0,10.25,42h0a3.61,3.61,0,0,0,1.34-1.5A4.28,4.28,0,0,0,12,38.69a3.91,3.91,0,0,0-1-2.63,3.86,3.86,0,0,0-3.08-1.12H4.77Zm5.75-.2h0Z"/><path class="cls-2" d="M34.89,55.1H19.09a.5.5,0,0,1-.5-.5V31.46a.5.5,0,0,1,.5-.5H34.43a.5.5,0,0,1,.5.5v3a.5.5,0,0,1-.5.5H22.76v6H33.13a.5.5,0,0,1,.5.5v3a.5.5,0,0,1-.5.5H22.76v6.14H34.89a.5.5,0,0,1,.5.5v3A.5.5,0,0,1,34.89,55.1Zm-15.3-1h14.8v-2H22.26a.5.5,0,0,1-.5-.5V44.45a.5.5,0,0,1,.5-.5H32.63V42H22.26a.5.5,0,0,1-.5-.5v-7a.5.5,0,0,1,.5-.5H33.93V32H19.59Z"/><path class="cls-2" d="M59.53,55.86a.77.77,0,0,1-.45-.15L42.61,39.32l.06,15.27a.5.5,0,0,1-.5.5H39a.5.5,0,0,1-.5-.5V30.76a.5.5,0,0,1,.5-.5h.16a.5.5,0,0,1,.35.15L55.93,47l-.06-15.52a.5.5,0,0,1,.5-.5h3.17a.5.5,0,0,1,.5.5v23.9A.5.5,0,0,1,59.53,55.86ZM42.1,37.62a.5.5,0,0,1,.35.15L59,54.26V32H56.87l.06,16.23a.5.5,0,0,1-.31.46.5.5,0,0,1-.55-.11L39.47,31.81V54.1h2.2l-.06-16a.5.5,0,0,1,.31-.46A.49.49,0,0,1,42.1,37.62Z"/><path class="cls-2" d="M75.46,55.35a12.61,12.61,0,0,1-6.28-1.63,12.32,12.32,0,0,1-4.57-4.45A12,12,0,0,1,62.92,43a11.79,11.79,0,0,1,1.7-6.15h0a12.82,12.82,0,0,1,4.57-4.51,12.5,12.5,0,0,1,12.53,0,12.91,12.91,0,0,1,4.6,4.51A11.71,11.71,0,0,1,88,43a11.84,11.84,0,0,1-1.7,6.18,12.68,12.68,0,0,1-10.87,6.13Zm-10-17.94A10.81,10.81,0,0,0,63.92,43a11,11,0,0,0,1.54,5.71,11.32,11.32,0,0,0,4.21,4.09,11.73,11.73,0,0,0,15.81-4.14A10.86,10.86,0,0,0,87,43a10.72,10.72,0,0,0-1.58-5.63,11.94,11.94,0,0,0-4.25-4.16,11.5,11.5,0,0,0-11.52,0,11.82,11.82,0,0,0-4.21,4.16Zm10,14.93a9.34,9.34,0,0,1-8.1-4.63h0a9.08,9.08,0,0,1-1.24-4.64,9.42,9.42,0,0,1,1.22-4.69A9.21,9.21,0,0,1,70.77,35a9.06,9.06,0,0,1,4.69-1.27,9.22,9.22,0,0,1,8.07,4.67,9.53,9.53,0,0,1,0,9.38,9.05,9.05,0,0,1-3.35,3.38A9.17,9.17,0,0,1,75.53,52.34Zm-.07-17.66a8.08,8.08,0,0,0-4.18,1.13,8.23,8.23,0,0,0-3,3.06,8.42,8.42,0,0,0-1.09,4.2,8.1,8.1,0,0,0,1.11,4.13h0a8.42,8.42,0,0,0,11.41,3,8.06,8.06,0,0,0,3-3,8.52,8.52,0,0,0,0-8.38,8.23,8.23,0,0,0-7.2-4.17Z"/><path class="cls-2" d="M98.93,55.1H95.76a.5.5,0,0,1-.5-.5V47L86.58,31.71A.5.5,0,0,1,87,31h3.92a.5.5,0,0,1,.44.26l6.06,11.1,6-11.1a.5.5,0,0,1,.44-.26h3.88a.5.5,0,0,1,.43.75L99.43,47V54.6A.5.5,0,0,1,98.93,55.1Zm-2.67-1h2.17V46.88a.5.5,0,0,1,.07-.25L106.91,32h-2.72L97.87,43.6a.5.5,0,0,1-.44.26h0A.5.5,0,0,1,97,43.6L90.64,32H87.87L96.2,46.64a.5.5,0,0,1,.07.25Z"/><path class="cls-2" d="M126,55.1H122.3a.5.5,0,0,1-.46-.31L119.51,49h-8.4l-2.39,5.77a.5.5,0,0,1-.46.31h-3.13a.5.5,0,0,1-.46-.7L115,30.3a.5.5,0,0,1,.46-.3h.2a.5.5,0,0,1,.46.3l10.31,24.1a.5.5,0,0,1-.46.7Zm-3.32-1h2.56l-9.65-22.56L105.89,54.1h2l2.39-5.77a.5.5,0,0,1,.46-.31h9.07a.5.5,0,0,1,.46.31Zm-3.86-7.77h-6.85a.5.5,0,0,1-.46-.69L115,37.19a.5.5,0,0,1,.46-.31.46.46,0,0,1,.46.32l3.36,8.45a.5.5,0,0,1-.46.68Zm-6.11-1H118l-2.63-6.62Z"/><path class="cls-2" d="M145.6,55.1h-3.69a.5.5,0,0,1-.42-.23l-5.39-8.3h-3.52v8a.5.5,0,0,1-.5.5h-3.17a.5.5,0,0,1-.5-.5V31.46a.5.5,0,0,1,.5-.5h6.3a11.17,11.17,0,0,1,4.51.87,7.26,7.26,0,0,1,3.18,2.63,7.37,7.37,0,0,1,1.16,4.17,8.71,8.71,0,0,1-1,4.17,6.61,6.61,0,0,1-2.68,2.68L146,54.33a.5.5,0,0,1-.42.77Zm-3.42-1h2.5l-5.45-8.54a.5.5,0,0,1,.21-.72,5.75,5.75,0,0,0,2.72-2.5,7.73,7.73,0,0,0,.9-3.7,6.4,6.4,0,0,0-1-3.61,6.27,6.27,0,0,0-2.75-2.27,10.18,10.18,0,0,0-4.11-.79h-5.8V54.1h2.17v-8a.5.5,0,0,1,.5-.5h3.49a6.67,6.67,0,0,0,.72,0,.5.5,0,0,1,.48.22Zm-6.67-10.52h-3.43a.5.5,0,0,1-.5-.5V34.44a.5.5,0,0,1,.5-.5h3.66a5.25,5.25,0,0,1,2.86.73,4.48,4.48,0,0,1,1.68,1.85,5.16,5.16,0,0,1,.52,2.23,5,5,0,0,1-1.25,3.33h0A5.08,5.08,0,0,1,135.52,43.58Zm-2.93-1h2.93a4.16,4.16,0,0,0,3.29-1.14h0a4,4,0,0,0,1-2.68,4.17,4.17,0,0,0-.42-1.8,3.46,3.46,0,0,0-1.32-1.44,4.27,4.27,0,0,0-2.33-.58h-3.16Zm6.6-.81h0Z"/></g></g></svg>